<?xml version="1.0" encoding="utf-8"?><svg xmlns="http://www.w3.org/2000/svg" width="273.2" height="201.2" viewBox="0 0 273.2 201.2"><path fill="#2288CA" d="M241.7 146.9h-210v-3.4h210v3.4z"/><path fill="#2288CA" stroke="#009FE3" stroke-width="1.5" d="M136.7 145.2"/><path d="M97 71.8l-4.6-10.1H68c1-3.2 4.8-15.2 5.4-16.9 1.1-2.7 2-3.8 2.4-4.2-.3 1.6-1.5 8-1.5 8v.2l5.4 8.7h23.1l.1-.5c.2-.9.5-1.7.7-2.6 1.8-6.3 3.6-12.7 2.4-17.7-.1-.6-.3-1.2-.4-1.9-1.5-7.1-4.3-20.5-25-21.1-.5 0-1 0-1.5 0-16.9 0-29.4 9.2-33.1 18.3-5.6 14-16 40.1-25 68.4-2.4 7.8-1.8 15.2 1.8 21.5 4.1 7.2 11.3 11.7 16.3 12.8 2.5.6 5.4.9 8.7.9 8.3 0 17.3-2 21.4-4.7 5.3-3.5 12.5-8.3 15.4-18.2 1.8-6.1 12.2-40.3 12.3-40.7l.1-.2zm-21.5 40.3c-3.1 6-13.7 16.8-29.6 16.8-14.3 0-27.7-9.1-23.2-26.4C26.8 87 47.3 34.2 47.5 33.8c3.5-8 14.7-18.4 32.3-17.9 19 .6 22.2 11.3 21.7 15.6-.5 4.3-4.5 16.2-4.5 16.2H77s1.2-5.6 1.9-9.7c1-5.8-8.4-6.8-11.2-1.2-2.5 5.1-18.6 52.3-20.3 63.9-1.1 7.3 7.8 6.9 9.9 3.2C58.4 102 64.6 82 64.6 82H59l5.2-18h27s-12.6 42.1-15.7 48.1zm68.7-5c1-2.2 10.6-35.5 11.8-41 1.3-6-.8-16.8-1.9-19.9l-.1-.2c-1.1-3.3-3.7-11-15.9-12.3-1-.1-2-.2-3-.2-10.5 0-23.8 5.5-28.2 17.5-4.3 11.8-13.5 41.6-16.4 53.1-2.9 11.6-1 15.3.1 17.5l.1.2c1 2.1 6.9 12.4 21.4 12.8.4 0 .8 0 1.3 0 13 0 21.7-4.6 25.8-13.7 3.3-7.3 4-10.3 4.4-12 .2-.7.3-1.2.6-1.8zm-10 5c-1.7 4.6-2.5 5.4-6.3 9.4-3.9 4-13.7 6.3-17 6.5-3.2.2-7.7.6-14.5-3.2-5.5-3-5-12.1-3.7-18.3.7-3.2 12.1-41.6 12.6-43.5.4-1.8 1.3-4.1 5.1-13.4 2.5-6.1 14.3-14.6 25.7-14 12.2.7 16.2 8.6 15.7 14.7-.5 6.4-15.9 57.2-17.6 61.8zm43.2-5L191.9 52v-.1l-3.4-17.8h-22l-24.1 91.3-.1.2 3.8 8h36.2l2-10.6-3.4-15.7h-3.5zm-1.7 17.6H145l23.4-88.8h18.2l-18.8 73.2 11.3.5-3.4 15.1zm51.1-90.6l-9.3 23.6.7-9.3v-.1L216 34h-21.5l-9.6 91.7v.1l2 7.5 23.4.2 37.5-82.4.1-.1.2-16.9h-21.3zm-20.7 90.8h-18.3l8.9-89h16.9L206 93.8l22.8-58H246l-39.9 89.1zm-75.7-73.6c-.1 0-.2 0-.4 0-2.8 0-3.9 2.1-4.6 4.1-.4 1.2-6.1 21.7-10.2 36.6-2.4 8.5-4.2 15.2-4.4 15.9-.1.4-.1.7.2 1 .5.7 1.8 1.1 3.2 1.1 1.5 0 3.4-.5 3.8-2 .7-2.4 2-7 3.6-12.5 4.4-15.1 10.9-37.9 11.5-40.4.2-.9.4-2.1-.2-2.8-.4-.6-1.3-1-2.5-1zm-78 126.8h-7.6v-17.9h7c1.6 0 3.4.1 4.6.4 2 .6 3.2 2.3 3.2 4.3 0 1-.3 1.6-.3 1.8-.5 1.2-1.5 1.8-2.3 2.1.8.2 1.6.6 2.3 1.3.7.7 1 1.7 1 2.8 0 1.5-.8 3.5-3.1 4.5-1.4.6-3 .7-4.8.7zm-2.9-3.8h2.7c1.7 0 3-.2 3-1.8s-1.1-1.8-2.3-1.8h-3.5v3.6zm0-7.3h3c1.2 0 2.3-.2 2.3-1.6 0-1.3-.9-1.4-2-1.4h-3.2v3zm33.2 11.1h-5.5l-3.4-6.2h-2.2v6.2h-5v-17.9h8.1c1.9 0 4.2.1 5.9 1.9.9 1 1.5 2.5 1.5 4.1 0 3.4-2.1 4.4-3.4 4.9l4 7zm-11.2-10h3.3c1.1 0 2.3-.3 2.3-2.1s-1.1-2-2.2-2h-3.4v4.1zm32.6 10h-5.3l-.9-2.8H92l-.9 2.8h-5.3l6.7-17.9h4.9l6.7 17.9zm-10.9-6.5h3.6l-1.8-5.9c-.1.5-.3 1.1-.4 1.6-.2.8-.6 1.9-.9 2.9-.2.5-.4 1-.5 1.4zm30.7 6.5h-4.7l-3.3-5.6c-1.3-2.1-1.7-2.9-2.5-4.3l.1 9.9h-4.8v-17.9h4.7l3.8 6.5c1 1.8 1.5 2.7 2 3.6l-.2-10.1h4.8v17.9zm13.5.4c-5 0-7-2.3-8.1-3.6l-.2-.3.3-.2 3.5-2.2.2.2c.4.4.7.8 1.6 1.3 1.2.7 2.4.8 3.2.8 1.6 0 2.9-.7 2.9-1.7s-1.2-1.3-2.7-1.5c-1-.1-2-.3-2.9-.5-3.3-.7-4.9-2.4-4.9-5 0-4.5 3.9-6.1 7.3-6.1 4.1 0 6.4 2 7.9 3.4l.3.3-3.7 2.7-.2-.2c-.5-.5-1-1-1.7-1.3-.6-.3-1.6-.7-2.7-.7-1.5 0-2.3.8-2.3 1.5 0 1 1 1.2 1.9 1.3 1.7.2 4.3.7 5.4 1 2.1.8 3.2 2.4 3.2 4.5 0 1.4-.5 2.8-1.4 3.9-1.5 1.6-3.8 2.4-6.9 2.4zm21.4.1c-5.1 0-8.6-3.8-8.6-9.5 0-5.4 3.7-9.5 8.7-9.5 1.9 0 3.8.6 5.2 1.8 1.3 1 1.9 2 2.3 2.9l.2.3-4 2-.1-.3c-.2-.5-.5-1.1-1.2-1.7-.7-.5-1.4-.8-2.2-.8-2.7 0-4 2.6-4 5.2 0 3.3 1.6 5.4 4 5.4 2.1 0 2.9-1.4 3.5-2.4l.1-.3.3.1 3.7 1.9-.2.3c-.7 1-1.3 2-2.7 3-1 .8-2.7 1.6-5 1.6zm28.1-.5h-5v-7.4h-5.7v7.4h-5v-17.9h5v6.3h5.7v-6.3h5v17.9zm21.3 0H194v-17.9h13.4v4H199v2.5h7.9v3.9H199v3.5h9.2v4zm21.3 0h-4.7l-3.3-5.6c-1.3-2.1-1.7-2.8-2.5-4.3l.1 9.9h-4.8v-17.9h4.7l3.8 6.5c1 1.8 1.5 2.7 2 3.6l-.2-10.1h4.8v17.9zm28.9 23.1H14.8c-8.1 0-14.8-6.6-14.8-14.8V14.8C0 6.6 6.6 0 14.8 0h243.6c8.1 0 14.8 6.6 14.8 14.8v171.7c0 8.1-6.6 14.7-14.8 14.7zM14.8 4.3C9 4.3 4.3 9 4.3 14.8v171.7c0 5.8 4.7 10.5 10.5 10.5h243.6c5.8 0 10.5-4.7 10.5-10.5V14.8c0-5.8-4.7-10.5-10.5-10.5H14.8z" fill="#2288CA"/></svg>