<svg width="658" height="513" viewBox="0 0 658 513" fill="none" xmlns="http://www.w3.org/2000/svg">
<g clip-path="url(#clip0_42_10)">
<path d="M259.692 136.023C259.389 136.643 259.136 137.285 258.934 137.945L199.773 155.776L188.819 145.512L171.169 160.019L188.795 180.073C190.219 181.693 192.13 182.808 194.241 183.249C196.353 183.691 198.55 183.436 200.504 182.522L264.183 152.744C266.397 154.21 269.006 154.968 271.661 154.916C274.316 154.864 276.893 154.005 279.048 152.453C281.204 150.901 282.835 148.73 283.726 146.228C284.617 143.726 284.726 141.012 284.037 138.447C283.348 135.882 281.894 133.588 279.869 131.869C277.844 130.15 275.344 129.089 272.702 128.826C270.059 128.563 267.398 129.11 265.074 130.396C262.75 131.682 260.873 133.644 259.692 136.023L259.692 136.023Z" fill="#FFB6B6"/>
<path d="M197.809 156.497L176.044 174.611C175.424 175.126 174.701 175.502 173.924 175.713C173.146 175.923 172.332 175.964 171.537 175.832C170.742 175.699 169.985 175.397 169.318 174.946C168.65 174.495 168.088 173.906 167.669 173.217L152.985 149.105C150.368 145.922 149.12 141.83 149.515 137.728C149.909 133.626 151.914 129.848 155.089 127.221C158.264 124.594 162.352 123.333 166.455 123.714C170.558 124.096 174.343 126.088 176.98 129.255L197.961 148.008C198.561 148.545 199.039 149.206 199.361 149.944C199.684 150.682 199.843 151.482 199.829 152.287C199.814 153.093 199.627 153.886 199.278 154.612C198.93 155.339 198.429 155.982 197.809 156.497V156.497Z" fill="#3F3D56"/>
<path d="M256.258 458.086L265.732 452.051C266.167 446.752 266.303 441.434 266.139 436.12L261.225 437.375L266.076 434.285C265.808 427.716 265.214 423.384 265.214 423.384C265.214 423.384 246.06 435.826 233.843 452.69L235.926 466.953L230.958 456.979C229.687 459.013 228.546 461.125 227.54 463.303C217.475 485.292 216.497 506.404 225.356 510.459C234.215 514.514 249.556 499.976 259.621 477.987C262.657 470.916 264.591 463.42 265.356 455.762L256.258 458.086Z" fill="#E6E6E6"/>
<path d="M275.719 479.311L286.948 479.041C290.06 474.73 292.925 470.247 295.532 465.614L290.676 464.148L296.425 464.01C299.591 458.249 301.323 454.233 301.323 454.233C301.323 454.233 278.495 454.983 259.319 463.105L253.73 476.391L254.633 465.285C252.494 466.369 250.425 467.587 248.438 468.932C228.456 482.552 216.706 500.12 222.193 508.171C227.681 516.221 248.328 511.706 268.31 498.085C274.565 493.601 280.095 488.184 284.708 482.024L275.719 479.311Z" fill="#E6E6E6"/>
<path d="M209.349 499.141L221.609 499.14L226.208 451.454L209.347 451.853L209.349 499.141Z" fill="#FFB6B6"/>
<path d="M206.222 495.138L230.366 495.137H230.367C234.448 495.137 238.361 496.758 241.247 499.644C244.132 502.529 245.753 506.443 245.753 510.523V511.023L206.223 511.025L206.222 495.138Z" fill="#2F2E41"/>
<path d="M64.712 463.751L72.753 473.005L112.275 446.394L100.407 432.735L64.712 463.751Z" fill="#FFB6B6"/>
<path d="M65.6826 458.765L81.5184 476.99L81.5191 476.991C84.1952 480.071 85.5381 484.089 85.2524 488.159C84.9667 492.23 83.0758 496.02 79.9956 498.697L79.6182 499.025L53.6905 469.185L65.6826 458.765Z" fill="#2F2E41"/>
<path d="M1.19067 512.53H335.485C335.8 512.53 336.103 512.405 336.327 512.181C336.55 511.958 336.675 511.655 336.675 511.339C336.675 511.024 336.55 510.721 336.327 510.497C336.103 510.274 335.8 510.149 335.485 510.149H1.19067C1.03402 510.148 0.878807 510.179 0.733948 510.238C0.589088 510.298 0.457428 510.386 0.346497 510.496C0.235565 510.607 0.147548 510.738 0.0874939 510.883C0.0274402 511.028 -0.003479 511.183 -0.003479 511.339C-0.003479 511.496 0.0274402 511.651 0.0874939 511.796C0.147548 511.94 0.235565 512.072 0.346497 512.183C0.457428 512.293 0.589088 512.381 0.733948 512.44C0.878807 512.5 1.03402 512.53 1.19067 512.53V512.53Z" fill="#CACACA"/>
<path d="M182.414 386.892L208.208 482.454H228.208L223.815 377.94L212.221 276.114L170.105 273.876L182.414 386.892Z" fill="#2F2E41"/>
<path d="M137.655 276.114C137.655 276.114 135.417 290.661 144.369 306.326C153.321 321.992 147.726 374.583 147.726 374.583L72.2082 450.454C72.2082 450.454 83.9446 470.815 89.5394 469.696C95.1342 468.577 183.533 396.963 183.533 396.963L212.221 280.59L137.655 276.114Z" fill="#2F2E41"/>
<path d="M179.295 106.723C193.508 106.723 205.031 95.2002 205.031 80.9865C205.031 66.7728 193.508 55.2502 179.295 55.2502C165.081 55.2502 153.558 66.7728 153.558 80.9865C153.558 95.2002 165.081 106.723 179.295 106.723Z" fill="#FFB6B6"/>
<path d="M178.208 121.454C178.208 121.454 148.208 110.097 148.208 113.454C148.208 116.811 118.633 145.195 125.346 182.121C132.06 219.047 139.893 236.95 136.536 257.092C133.179 277.233 135.417 281.709 135.417 281.709C135.417 281.709 213.34 288.423 214.458 280.59C215.577 272.757 211.208 260.811 211.208 257.454C211.208 254.097 180.289 130.093 178.208 121.454Z" fill="#3F3D56"/>
<path d="M167.646 96.4513C169.73 95.3497 172.15 95.1226 174.405 94.4379C182.473 91.9881 187.878 82.8673 186.153 74.6138C185.834 73.5552 185.691 72.4515 185.729 71.3466C186.031 68.9021 188.532 67.3249 190.93 66.7648C193.329 66.2047 195.881 66.2861 198.173 65.3855C201.713 63.9949 204.064 60.3574 204.573 56.5888C204.94 52.7735 204.09 48.9401 202.146 45.6368L201.28 48.1298C199.959 47.0113 198.978 45.5444 198.449 43.896C197.464 44.0615 196.539 44.4769 195.761 45.1026C194.983 45.7283 194.378 46.5432 194.006 47.4693C192.615 48.2893 192.415 44.9218 190.879 44.425C190.203 44.3407 189.52 44.5091 188.961 44.8979C185.866 46.3415 182.27 45.1072 178.95 44.307C173.2 42.9279 167.207 42.9208 161.454 44.2864C157.633 45.198 153.85 46.7854 151.115 49.6064C148.976 52.0349 147.333 54.8583 146.278 57.9177C143.345 65.2997 141.407 73.2872 142.375 81.1713C143.182 87.6229 145.881 93.6913 150.132 98.6107C152.347 101.162 159.573 110.064 163.534 108.547C168.513 106.64 161.781 99.5526 167.646 96.4513Z" fill="#2F2E41"/>
<path opacity="0.2" d="M211.305 319.693L181.859 396.896L183.347 397.464L212.793 320.26L211.305 319.693Z" fill="black"/>
<path d="M274.869 124.455C272.996 124.457 271.2 125.203 269.876 126.527C268.551 127.852 267.806 129.647 267.804 131.521V210.062C267.806 211.936 268.551 213.731 269.876 215.056C271.2 216.38 272.996 217.126 274.869 217.128H650.926C652.799 217.126 654.595 216.38 655.919 215.056C657.244 213.731 657.989 211.936 657.991 210.062V131.521C657.989 129.647 657.244 127.852 655.919 126.527C654.595 125.203 652.799 124.457 650.926 124.455L274.869 124.455Z" fill="#E6E6E6"/>
<path d="M277.41 129.965C276.324 129.966 275.282 130.398 274.514 131.166C273.746 131.934 273.314 132.975 273.313 134.061V207.522C273.314 208.608 273.746 209.649 274.514 210.417C275.282 211.185 276.324 211.617 277.41 211.618H648.385C649.471 211.617 650.513 211.185 651.28 210.417C652.048 209.649 652.48 208.608 652.481 207.522V134.061C652.48 132.975 652.048 131.934 651.28 131.166C650.513 130.398 649.471 129.966 648.385 129.965H277.41Z" fill="white"/>
<path d="M627.985 198.162C629.762 198.156 631.464 197.101 632.72 195.229C633.976 193.358 634.682 190.821 634.684 188.176C634.687 185.53 633.985 182.991 632.733 181.114C631.481 179.238 629.78 178.176 628.003 178.162C627.997 178.162 627.991 178.162 627.985 178.162H311.373C309.597 178.173 307.895 179.231 306.642 181.106C305.388 182.98 304.684 185.517 304.684 188.162C304.684 190.807 305.388 193.345 306.642 195.219C307.895 197.093 309.597 198.152 311.373 198.162H627.985Z" fill="#E6E6E6"/>
<path d="M462.588 169C463.561 169.002 464.525 168.744 465.424 168.242C466.323 167.74 467.14 167.004 467.829 166.075C468.517 165.147 469.063 164.044 469.436 162.83C469.808 161.616 470 160.314 470 159C470 157.686 469.808 156.384 469.436 155.17C469.063 153.956 468.517 152.853 467.829 151.925C467.14 150.996 466.323 150.26 465.424 149.758C464.525 149.256 463.561 148.998 462.588 149H312.412C311.439 148.998 310.476 149.256 309.576 149.758C308.677 150.26 307.86 150.996 307.172 151.925C306.483 152.853 305.937 153.956 305.564 155.17C305.192 156.384 305 157.686 305 159C305 160.314 305.192 161.616 305.564 162.83C305.937 164.044 306.483 165.147 307.172 166.075C307.86 167.004 308.677 167.74 309.576 168.242C310.476 168.744 311.439 169.002 312.412 169H462.588Z" fill="#1B202A"/>
<path d="M329.833 276C328.507 276.002 327.236 276.529 326.299 277.466C325.362 278.404 324.834 279.674 324.833 281V336.583C324.834 337.909 325.362 339.179 326.299 340.117C327.236 341.054 328.507 341.581 329.833 341.583H595.963C597.288 341.581 598.559 341.054 599.496 340.117C600.434 339.179 600.961 337.909 600.963 336.583V281C600.961 279.674 600.434 278.404 599.496 277.466C598.559 276.529 597.288 276.002 595.963 276H329.833Z" fill="#E6E6E6"/>
<path d="M331.631 279.899C330.862 279.9 330.125 280.205 329.581 280.749C329.038 281.292 328.732 282.029 328.731 282.798V334.785C328.732 335.554 329.038 336.291 329.581 336.834C330.125 337.378 330.862 337.683 331.631 337.684H594.165C594.933 337.683 595.67 337.378 596.214 336.834C596.757 336.291 597.062 335.554 597.063 334.785V282.798C597.062 282.029 596.757 281.292 596.214 280.749C595.67 280.205 594.933 279.9 594.165 279.899H331.631Z" fill="white"/>
<path d="M577.681 323.428C578.93 323.429 580.128 322.934 581.012 322.052C581.896 321.17 582.394 319.973 582.395 318.724C582.397 317.476 581.903 316.277 581.021 315.393C580.139 314.508 578.943 314.01 577.694 314.008C577.69 314.008 577.685 314.008 577.681 314.008H355.624C354.375 314.01 353.179 314.507 352.297 315.39C351.415 316.273 350.92 317.47 350.92 318.718C350.92 319.966 351.415 321.163 352.297 322.046C353.179 322.929 354.375 323.427 355.624 323.428H577.681Z" fill="#E6E6E6"/>
<path d="M451.176 302.965C451.795 302.965 452.408 302.844 452.98 302.608C453.552 302.372 454.073 302.025 454.511 301.587C454.949 301.15 455.296 300.63 455.534 300.058C455.771 299.486 455.893 298.873 455.893 298.254C455.893 297.635 455.771 297.022 455.534 296.45C455.296 295.878 454.949 295.359 454.511 294.921C454.073 294.484 453.552 294.137 452.98 293.901C452.408 293.664 451.795 293.543 451.176 293.544H355.624C355.004 293.543 354.391 293.664 353.819 293.901C353.247 294.137 352.727 294.484 352.288 294.921C351.85 295.359 351.503 295.878 351.266 296.45C351.028 297.022 350.906 297.635 350.906 298.254C350.906 298.873 351.028 299.486 351.266 300.058C351.503 300.63 351.85 301.15 352.288 301.587C352.727 302.025 353.247 302.372 353.819 302.608C354.391 302.844 355.004 302.965 355.624 302.965H451.176Z" fill="#E4E4E4"/>
<path d="M329.833 0C328.507 0.00155617 327.236 0.528842 326.299 1.46619C325.362 2.40353 324.834 3.6744 324.833 5V60.583C324.834 61.9086 325.362 63.1795 326.299 64.1168C327.236 65.0542 328.507 65.5814 329.833 65.583H595.963C597.288 65.5814 598.559 65.0542 599.496 64.1168C600.434 63.1795 600.961 61.9086 600.963 60.583V5C600.961 3.6744 600.434 2.40353 599.496 1.46619C598.559 0.528842 597.288 0.00155617 595.963 0H329.833Z" fill="#E6E6E6"/>
<path d="M331.631 3.89893C330.862 3.8997 330.125 4.20534 329.581 4.74881C329.038 5.29228 328.732 6.0292 328.731 6.79785V58.7852C328.732 59.5538 329.038 60.2907 329.581 60.8342C330.125 61.3776 330.862 61.6833 331.631 61.6841H594.165C594.933 61.6832 595.67 61.3775 596.214 60.834C596.757 60.2906 597.062 59.5537 597.063 58.7852V6.79785C597.062 6.02931 596.757 5.29243 596.214 4.74895C595.67 4.20546 594.933 3.89976 594.165 3.89893H331.631Z" fill="white"/>
<path d="M577.681 47.4284C578.93 47.4294 580.128 46.9344 581.012 46.0524C581.896 45.1703 582.394 43.9732 582.395 42.7244C582.397 41.4756 581.903 40.2772 581.021 39.3928C580.139 38.5083 578.943 38.0101 577.694 38.0077C577.69 38.0077 577.685 38.0077 577.681 38.0077H355.624C354.375 38.0096 353.179 38.5066 352.297 39.3898C351.415 40.2729 350.92 41.47 350.92 42.718C350.92 43.9661 351.415 45.1632 352.297 46.0463C353.179 46.9295 354.375 47.4266 355.624 47.4284H577.681Z" fill="#E6E6E6"/>
<path d="M451.176 26.9645C451.795 26.9654 452.408 26.8443 452.98 26.608C453.552 26.3716 454.073 26.0248 454.511 25.5874C454.949 25.1499 455.296 24.6303 455.534 24.0584C455.771 23.4864 455.893 22.8734 455.893 22.2542C455.893 21.6351 455.771 21.022 455.534 20.4501C455.296 19.8781 454.949 19.3586 454.511 18.9211C454.073 18.4836 453.552 18.1368 452.98 17.9005C452.408 17.6642 451.795 17.543 451.176 17.5439H355.624C355.004 17.543 354.391 17.6642 353.819 17.9005C353.247 18.1368 352.727 18.4836 352.288 18.9211C351.85 19.3586 351.503 19.8781 351.266 20.4501C351.028 21.022 350.906 21.6351 350.906 22.2542C350.906 22.8734 351.028 23.4864 351.266 24.0584C351.503 24.6303 351.85 25.1499 352.288 25.5874C352.727 26.0248 353.247 26.3716 353.819 26.608C354.391 26.8443 355.004 26.9654 355.624 26.9645H451.176Z" fill="#E4E4E4"/>
<path d="M251.457 181.114C250.959 181.591 250.5 182.106 250.083 182.656L188.403 178.965L181.666 165.551L160.093 173.073L169.712 197.979C170.489 199.991 171.898 201.697 173.727 202.84C175.556 203.984 177.706 204.503 179.855 204.32L249.9 198.357C251.471 200.498 253.658 202.109 256.168 202.977C258.678 203.846 261.393 203.929 263.951 203.216C266.51 202.504 268.791 201.029 270.491 198.989C272.191 196.948 273.229 194.439 273.468 191.794C273.707 189.148 273.135 186.493 271.828 184.181C270.521 181.869 268.541 180.01 266.152 178.85C263.762 177.691 261.076 177.286 258.451 177.691C255.826 178.095 253.387 179.289 251.457 181.114L251.457 181.114Z" fill="#FFB6B6"/>
<path d="M186.311 178.965L159.63 188.45C158.871 188.72 158.063 188.823 157.26 188.752C156.458 188.682 155.68 188.439 154.979 188.04C154.279 187.642 153.673 187.097 153.202 186.443C152.731 185.789 152.407 185.042 152.251 184.251L146.795 156.552C145.439 152.661 145.68 148.391 147.467 144.678C149.253 140.965 152.439 138.111 156.325 136.742C160.212 135.373 164.483 135.6 168.202 137.374C171.921 139.148 174.786 142.325 176.168 146.207L189.384 171.05C189.762 171.761 189.982 172.546 190.03 173.35C190.078 174.155 189.951 174.96 189.66 175.711C189.368 176.462 188.918 177.141 188.34 177.703C187.762 178.264 187.07 178.695 186.311 178.965H186.311Z" fill="#3F3D56"/>
<path d="M277.991 149.618C287.38 149.618 294.991 142.007 294.991 132.618C294.991 123.229 287.38 115.618 277.991 115.618C268.602 115.618 260.991 123.229 260.991 132.618C260.991 142.007 268.602 149.618 277.991 149.618Z" fill="#1B202A"/>
</g>
<defs>
<clipPath id="clip0_42_10">
<rect width="657.991" height="512.53" fill="white"/>
</clipPath>
</defs>
</svg>
